<svg xmlns="http://www.w3.org/2000/svg" width="19.664" height="19.664" viewBox="0 0 19.664 19.664">
  <path id="change" d="M8.215,27.664V25.821h3.994l-.461-.369a9.977,9.977,0,0,1-2.857-3.41A9.338,9.338,0,0,1,8,17.924a9.6,9.6,0,0,1,1.92-5.853,9.757,9.757,0,0,1,5.054-3.579v1.9a7.822,7.822,0,0,0-3.718,2.965,7.93,7.93,0,0,0-1.413,4.563,7.372,7.372,0,0,0,.722,3.364,7.883,7.883,0,0,0,1.951,2.473l.922.645V20.6h1.844v7.067ZM20.72,27.2V25.268A7.635,7.635,0,0,0,24.438,22.3a8.054,8.054,0,0,0,1.383-4.563,6.948,6.948,0,0,0-.722-3,9.582,9.582,0,0,0-1.89-2.688l-.891-.8v3.81H20.474V8h7.067V9.844H23.516l.461.43a12.1,12.1,0,0,1,2.765,3.687,8.9,8.9,0,0,1,.922,3.779A9.864,9.864,0,0,1,20.72,27.2Z" transform="translate(-8 -8)" fill="#fff"/>
</svg>
