<svg xmlns="http://www.w3.org/2000/svg" width="20" height="20" viewBox="0 0 20 20">
  <path id="check_circle_FILL0_wght400_GRAD0_opsz48" d="M12.525,18.55,19.6,11.475,18.45,10.35l-5.925,5.925-3-3L8.4,14.4ZM14,24a10.143,10.143,0,0,1-3.95-.763A9.679,9.679,0,0,1,4.762,17.95,10.143,10.143,0,0,1,4,14a10.078,10.078,0,0,1,.762-3.925A9.76,9.76,0,0,1,6.875,6.9,9.97,9.97,0,0,1,14,4,9.92,9.92,0,0,1,24,14a9.97,9.97,0,0,1-2.9,7.125,9.76,9.76,0,0,1-3.175,2.112A10.078,10.078,0,0,1,14,24Zm0-10Zm0,8.5A8.328,8.328,0,0,0,22.5,14,8.328,8.328,0,0,0,14,5.5,8.328,8.328,0,0,0,5.5,14,8.328,8.328,0,0,0,14,22.5Z" transform="translate(-4 -4)" fill="#fff"/>
</svg>
