<svg xmlns="http://www.w3.org/2000/svg" width="30" height="30" viewBox="0 0 30 30">
  <path id="cancel_FILL1_wght400_GRAD0_opsz48" d="M13.375,26.2,19,20.575,24.625,26.2,26.2,24.625,20.575,19,26.2,13.375,24.625,11.8,19,17.425,13.375,11.8,11.8,13.375,17.425,19,11.8,24.625ZM19,34a14.514,14.514,0,0,1-5.812-1.181,15.113,15.113,0,0,1-8.006-8.006,14.983,14.983,0,0,1,0-11.662A14.991,14.991,0,0,1,8.406,8.388a15.376,15.376,0,0,1,4.781-3.206,14.983,14.983,0,0,1,11.662,0,14.977,14.977,0,0,1,7.969,7.969,14.983,14.983,0,0,1,0,11.662,15.376,15.376,0,0,1-3.206,4.781,14.991,14.991,0,0,1-4.763,3.225A14.606,14.606,0,0,1,19,34Z" transform="translate(-4 -4)" fill="#21609f"/>
</svg>
