<svg xmlns="http://www.w3.org/2000/svg" xmlns:xlink="http://www.w3.org/1999/xlink" width="47.489" height="46.528" viewBox="0 0 47.489 46.528">
  <defs>
    <linearGradient id="linear-gradient" y1="0.5" x2="1" y2="0.5" gradientUnits="objectBoundingBox">
      <stop offset="0" stop-color="#00a2c7"/>
      <stop offset="1" stop-color="#004f8f"/>
    </linearGradient>
  </defs>
  <g id="Grupo_148" data-name="Grupo 148" transform="translate(-297.867 32.475)">
    <path id="Trazado_22" data-name="Trazado 22" d="M321.339-21.2a12.354,12.354,0,0,1,11.325-7.772c6.823,0,11.736,5.91,12.354,12.955a13.052,13.052,0,0,1-.4,4.9,21.7,21.7,0,0,1-6.515,11L321.339,15.03,304.858-.117a21.7,21.7,0,0,1-6.515-11,13.043,13.043,0,0,1-.4-4.9c.617-7.044,5.531-12.954,12.353-12.954A11.976,11.976,0,0,1,321.339-21.2Z" transform="translate(0 -0.977)" opacity="0.7" fill="url(#linear-gradient)" style="mix-blend-mode: multiply;isolation: isolate"/>
    <path id="Trazado_23" data-name="Trazado 23" d="M321.7-24.7a12.354,12.354,0,0,1,11.325-7.772c6.823,0,11.736,5.91,12.354,12.954a13.062,13.062,0,0,1-.4,4.9,21.7,21.7,0,0,1-6.515,11L321.7,11.526,305.223-3.621a21.7,21.7,0,0,1-6.515-11,13.062,13.062,0,0,1-.4-4.9c.618-7.044,5.531-12.954,12.354-12.954A11.975,11.975,0,0,1,321.7-24.7Z" transform="translate(-0.102)" fill="#fff"/>
    <path id="Trazado_24" data-name="Trazado 24" d="M324.083,5.51h-.066a1.91,1.91,0,0,1-1.745-1.3l-5.04-14.921-1.391,4.128a1.909,1.909,0,0,1-1.81,1.3h-7.31a1.91,1.91,0,0,1-1.911-1.91A1.91,1.91,0,0,1,306.722-9.1h5.937l2.76-8.195a1.91,1.91,0,0,1,1.809-1.3h0a1.91,1.91,0,0,1,1.81,1.3l5.228,15.474,4.9-11.807a1.909,1.909,0,0,1,1.707-1.177,1.926,1.926,0,0,1,1.775,1.073l2.675,5.5h5.659a1.91,1.91,0,0,1,1.91,1.91,1.91,1.91,0,0,1-1.91,1.91h-6.854a1.909,1.909,0,0,1-1.718-1.074L331.074-8.25,325.847,4.333A1.911,1.911,0,0,1,324.083,5.51Z" transform="translate(-1.937 -3.871)" fill="#b32324"/>
  </g>
</svg>
