<svg xmlns="http://www.w3.org/2000/svg" width="20.455" height="25.568" viewBox="0 0 20.455 25.568">
  <path id="pdf" d="M9.918,29.568A1.966,1.966,0,0,1,8,27.651V5.918a1.84,1.84,0,0,1,.575-1.342A1.84,1.84,0,0,1,9.918,4H21.455l7,7V27.651a1.966,1.966,0,0,1-1.918,1.918Zm0-1.918H26.537V11.862H20.592V5.918H9.918Zm8.31-2.557A4.447,4.447,0,0,0,22.7,20.619V16.145H21.423v4.474a3.114,3.114,0,0,1-.911,2.269,3.261,3.261,0,0,1-4.554,0,3.086,3.086,0,0,1-.927-2.269V13.588a1.224,1.224,0,0,1,.368-.927,1.267,1.267,0,0,1,.911-.352,1.208,1.208,0,0,1,1.278,1.278V19.98h1.278V13.588A2.565,2.565,0,0,0,14.5,11.766a2.447,2.447,0,0,0-.751,1.822v7.031a4.474,4.474,0,0,0,4.474,4.474ZM9.918,5.918v0Z" transform="translate(-8 -4)" fill="#fff"/>
</svg>
