<svg xmlns="http://www.w3.org/2000/svg" width="23.659" height="22.159" viewBox="0 0 23.659 22.159">
  <g id="Grupo_294" data-name="Grupo 294" transform="translate(-900.723 -36.858)">
    <path id="Trazado_78" data-name="Trazado 78" d="M912.487,59.017a.836.836,0,0,1-.568-.221l-7.671-7.05a10.877,10.877,0,0,1-3.282-5.549,7.092,7.092,0,0,1-.2-2.575c.357-3.921,3.121-6.763,6.583-6.763a6.249,6.249,0,0,1,5.147,2.736,6.5,6.5,0,0,1,5.264-2.735c3.461,0,6.225,2.842,6.582,6.763a7.08,7.08,0,0,1-.2,2.575,10.885,10.885,0,0,1-3.282,5.549L913.049,58.8A.837.837,0,0,1,912.487,59.017ZM902.422,43.884a5.607,5.607,0,0,0,.179,1.931,9.208,9.208,0,0,0,2.783,4.694l7.108,6.533,7.235-6.537a9.207,9.207,0,0,0,2.778-4.689,5.569,5.569,0,0,0,.177-1.941c0-.021-.008-.053-.01-.075-.229-2.616-1.991-5.264-4.914-5.264a4.913,4.913,0,0,0-4.5,3.1.839.839,0,0,1-.775.516h0a.839.839,0,0,1-.775-.517,4.761,4.761,0,0,0-4.365-3.1c-2.923,0-4.684,2.648-4.914,5.264,0,.028-.006.056-.011.084Z" transform="translate(0)" fill="#21609f"/>
    <path id="Trazado_79" data-name="Trazado 79" d="M922.349,65.584h-.024a.707.707,0,0,1-.646-.48l-1.865-5.52-.515,1.527a.707.707,0,0,1-.67.481h-2.7a.707.707,0,0,1,0-1.414h2.2l1.021-3.032a.707.707,0,0,1,.67-.481h0a.707.707,0,0,1,.67.481l1.934,5.725,1.815-4.369a.707.707,0,0,1,1.288-.038l.99,2.033H928.6a.707.707,0,0,1,0,1.414h-2.536a.707.707,0,0,1-.635-.4l-.5-1.021L923,65.149A.707.707,0,0,1,922.349,65.584Z" transform="translate(-9.631 -13.16)" fill="#21609f"/>
  </g>
</svg>
