<svg xmlns="http://www.w3.org/2000/svg" width="58" height="58" viewBox="0 0 58 58">
  <path id="check_circle_FILL0_wght400_GRAD0_opsz48" d="M28.722,46.195,49.24,25.677,45.9,22.415,28.722,39.6l-8.7-8.7L16.76,34.16ZM33,62a29.414,29.414,0,0,1-11.455-2.211A28.068,28.068,0,0,1,6.211,44.455,29.414,29.414,0,0,1,4,33,29.226,29.226,0,0,1,6.211,21.618a28.3,28.3,0,0,1,6.126-9.208A28.912,28.912,0,0,1,33,4,28.768,28.768,0,0,1,62,33a28.912,28.912,0,0,1-8.41,20.663,28.3,28.3,0,0,1-9.208,6.126A29.226,29.226,0,0,1,33,62Zm0-29Zm0,24.65A24.152,24.152,0,0,0,57.65,33,24.152,24.152,0,0,0,33,8.35,24.152,24.152,0,0,0,8.35,33,24.152,24.152,0,0,0,33,57.65Z" transform="translate(-4 -4)" fill="#a1bc31"/>
</svg>
