<svg xmlns="http://www.w3.org/2000/svg" width="16" height="15.525" viewBox="0 0 16 15.525">
  <path id="person_FILL0_wght400_GRAD0_opsz48" d="M16,16.45a3.6,3.6,0,0,1-3.75-3.75A3.6,3.6,0,0,1,16,8.95a3.6,3.6,0,0,1,3.75,3.75A3.6,3.6,0,0,1,16,16.45ZM8,24.475v-2.35A2.751,2.751,0,0,1,8.475,20.5,3.05,3.05,0,0,1,9.7,19.475a18.791,18.791,0,0,1,3.212-1.125A12.986,12.986,0,0,1,16,17.975a12.44,12.44,0,0,1,3.075.387,21.3,21.3,0,0,1,3.2,1.113,3.014,3.014,0,0,1,1.25,1.025A2.751,2.751,0,0,1,24,22.125v2.35Zm1.5-1.5h13v-.85a1.37,1.37,0,0,0-.238-.763,1.505,1.505,0,0,0-.587-.538,13.275,13.275,0,0,0-2.925-1.062A12.935,12.935,0,0,0,16,19.475a13.286,13.286,0,0,0-2.775.288A12.7,12.7,0,0,0,10.3,20.825a1.5,1.5,0,0,0-.8,1.3ZM16,14.95a2.18,2.18,0,0,0,2.25-2.25,2.25,2.25,0,1,0-4.5,0A2.18,2.18,0,0,0,16,14.95ZM16,12.7ZM16,22.975Z" transform="translate(-8 -8.95)" fill="#fff"/>
</svg>
