<svg xmlns="http://www.w3.org/2000/svg" width="20.484" height="19.876" viewBox="0 0 20.484 19.876">
  <path id="person_FILL0_wght400_GRAD0_opsz48" d="M18.242,18.552a4.6,4.6,0,0,1-4.8-4.8,4.6,4.6,0,0,1,4.8-4.8,4.6,4.6,0,0,1,4.8,4.8,4.6,4.6,0,0,1-4.8,4.8ZM8,28.826V25.818a3.522,3.522,0,0,1,.608-2.08,3.9,3.9,0,0,1,1.568-1.312,24.058,24.058,0,0,1,4.113-1.44,16.626,16.626,0,0,1,3.953-.48,15.927,15.927,0,0,1,3.937.5,27.265,27.265,0,0,1,4.1,1.424,3.859,3.859,0,0,1,1.6,1.312,3.522,3.522,0,0,1,.608,2.08v3.009Zm1.92-1.92H26.564V25.818a1.753,1.753,0,0,0-.3-.976,1.927,1.927,0,0,0-.752-.688,17,17,0,0,0-3.745-1.36,16.56,16.56,0,0,0-3.521-.368,17.01,17.01,0,0,0-3.553.368,16.257,16.257,0,0,0-3.745,1.36A1.926,1.926,0,0,0,9.92,25.818Zm8.322-10.274a2.792,2.792,0,0,0,2.881-2.881,2.881,2.881,0,1,0-5.761,0,2.792,2.792,0,0,0,2.881,2.881ZM18.242,13.751ZM18.242,26.906Z" transform="translate(-8 -8.95)" fill="#21609f"/>
</svg>
