<svg xmlns="http://www.w3.org/2000/svg" width="16" height="20" viewBox="0 0 16 20">
  <path id="pdf" d="M9.5,24A1.538,1.538,0,0,1,8,22.5V5.5a1.439,1.439,0,0,1,.45-1.05A1.439,1.439,0,0,1,9.5,4h9.025L24,9.475V22.5A1.538,1.538,0,0,1,22.5,24Zm0-1.5h13V10.15H17.85V5.5H9.5Zm6.5-2A3.478,3.478,0,0,0,19.5,17V13.5h-1V17a2.436,2.436,0,0,1-.712,1.775A2.506,2.506,0,0,1,13.5,17V11.5a.957.957,0,0,1,.288-.725A.991.991,0,0,1,14.5,10.5a.945.945,0,0,1,1,1v5h1v-5a2.006,2.006,0,0,0-3.413-1.425A1.914,1.914,0,0,0,12.5,11.5V17A3.5,3.5,0,0,0,16,20.5ZM9.5,5.5v0Z" transform="translate(-8 -4)" fill="#21609f"/>
</svg>
