<svg xmlns="http://www.w3.org/2000/svg" width="18" height="18" viewBox="0 0 18 18">
  <path id="help_FILL1_wght400_GRAD0_opsz48" d="M13.09,18.243A.845.845,0,1,0,12.483,18,.826.826,0,0,0,13.09,18.243ZM12.3,14.958H13.63a3.683,3.683,0,0,1,.146-1.069,2.649,2.649,0,0,1,.911-1.114,3.937,3.937,0,0,0,.99-1.148,2.642,2.642,0,0,0,.292-1.237,2.484,2.484,0,0,0-.776-1.913,2.907,2.907,0,0,0-2.059-.72,3.478,3.478,0,0,0-1.946.551A3.148,3.148,0,0,0,9.962,9.828l1.193.45A2.1,2.1,0,0,1,11.9,9.3a1.979,1.979,0,0,1,1.17-.349,1.8,1.8,0,0,1,1.238.416,1.36,1.36,0,0,1,.472,1.069,1.654,1.654,0,0,1-.293.934,4.482,4.482,0,0,1-.855.911,4.576,4.576,0,0,0-1,1.159,3.063,3.063,0,0,0-.326,1.519ZM13,22a8.708,8.708,0,0,1-3.487-.709,9.068,9.068,0,0,1-4.8-4.8,8.99,8.99,0,0,1,0-7A8.994,8.994,0,0,1,6.644,6.632,9.226,9.226,0,0,1,9.512,4.709a8.99,8.99,0,0,1,7,0A8.986,8.986,0,0,1,21.291,9.49a8.99,8.99,0,0,1,0,7,9.226,9.226,0,0,1-1.924,2.869,8.994,8.994,0,0,1-2.858,1.935A8.764,8.764,0,0,1,13,22Z" transform="translate(-4 -4)" fill="#a1bc31"/>
</svg>
