<svg xmlns="http://www.w3.org/2000/svg" width="27.466" height="25" viewBox="0 0 27.466 25">
  <path id="visibility_off_FILL0_wght400_GRAD0_opsz48" d="M20.383,18.67,19.01,17.3a3.1,3.1,0,0,0-.843-3.683,3.334,3.334,0,0,0-3.589-.749L13.2,11.492a3.773,3.773,0,0,1,1.186-.5,5.774,5.774,0,0,1,1.342-.156,5.275,5.275,0,0,1,5.306,5.306,5.457,5.457,0,0,1-.172,1.358A4.122,4.122,0,0,1,20.383,18.67ZM24.409,22.7l-1.248-1.248a14.638,14.638,0,0,0,2.669-2.512,10.03,10.03,0,0,0,1.67-2.793,12.458,12.458,0,0,0-4.682-5.478,12.256,12.256,0,0,0-6.773-2.013,14.989,14.989,0,0,0-2.684.25,9.952,9.952,0,0,0-2.154.593L9.772,8.027a14.152,14.152,0,0,1,2.793-.874,15.434,15.434,0,0,1,3.324-.375,14.09,14.09,0,0,1,8.162,2.544,14.748,14.748,0,0,1,5.415,6.82,15.419,15.419,0,0,1-2.091,3.652A15.075,15.075,0,0,1,24.409,22.7Zm1.81,7.054L20.976,24.6a12.126,12.126,0,0,1-2.466.671,16.5,16.5,0,0,1-2.778.234,14.31,14.31,0,0,1-8.271-2.544A14.909,14.909,0,0,1,2,16.142a14.162,14.162,0,0,1,1.732-3.168,17.741,17.741,0,0,1,2.7-2.949L2.5,6.092,3.81,4.75,27.437,28.377ZM7.712,11.336A11.486,11.486,0,0,0,5.48,13.551a10.273,10.273,0,0,0-1.545,2.591A12.5,12.5,0,0,0,8.726,21.62a13.338,13.338,0,0,0,7.257,2.013,16.341,16.341,0,0,0,2.029-.125,4.847,4.847,0,0,0,1.5-.375l-2-2a3.267,3.267,0,0,1-.843.234,6.083,6.083,0,0,1-.936.078,5.16,5.16,0,0,1-3.745-1.529,5.078,5.078,0,0,1-1.561-3.777,5.686,5.686,0,0,1,.078-.936,3.822,3.822,0,0,1,.234-.843ZM17.231,15.767ZM13.61,17.578Z" transform="translate(-2 -4.75)" fill="#8eb1d5"/>
</svg>
